# Blender v2.78 (sub 0) OBJ File: ''
# www.blender.org
mtllib leaf.mtl
o PalmTree-Fronds.007_palm-fronds.007
v 0.850550 0.261885 -0.984613
v -1.061512 0.348076 0.777938
v -0.802677 0.202053 1.107374
v 1.126720 0.226527 -0.634357
v -1.253245 0.407903 1.177969
v 1.218408 0.331973 -1.011953
v 0.284667 0.312100 -0.831524
v -0.152699 0.372925 -0.530870
v -0.585723 0.402230 -0.150119
v -0.929229 0.353276 0.421504
v -0.452903 0.144832 0.986563
v 0.125022 0.163199 0.660440
v 0.534466 0.189068 0.248784
v 0.877818 0.196416 -0.132922
v -0.828566 0.069399 0.700087
v -0.317362 -0.047123 0.194750
v 0.251325 -0.024421 -0.302667
v 0.806461 0.069446 -0.738907
vt 0.1050 0.2426
vt 0.3699 0.0878
vt 0.6198 0.0030
vt 0.4581 0.1477
vt 0.3577 0.3586
vt 0.0326 0.4006
vt 0.3098 0.5857
vt 0.0101 0.5742
vt 0.3441 0.8029
vt 0.1595 0.7680
vt 0.4782 0.9970
vt 0.3151 0.8713
vt 0.7906 0.1013
vt 0.9608 0.2601
vt 0.9899 0.4143
vt 0.9899 0.5890
vt 0.8182 0.7822
vt 0.6797 0.8835
vn -0.3119 -0.7812 -0.5407
vn -0.1043 -0.7738 -0.6247
vn 0.2181 -0.9336 -0.2844
vn 0.1046 -0.9531 -0.2838
vn -0.0822 -0.9790 -0.1865
vn -0.4223 -0.7423 -0.5202
vn -0.2095 -0.9671 -0.1444
vn -0.5249 -0.7001 -0.4840
vn -0.4323 -0.9010 -0.0371
vn -0.6594 -0.6419 -0.3912
vn -0.5054 -0.8600 0.0702
vn -0.7726 -0.5647 -0.2901
vn 0.4326 -0.9011 0.0287
vn 0.3144 -0.9363 0.1564
vn 0.2608 -0.9431 0.2063
vn 0.1827 -0.9551 0.2331
vn -0.0089 -0.9609 0.2766
vn -0.2276 -0.9215 0.3146
usemtl palm_fronds
s 1
f 7/1/1 1/2/2 6/3/3 18/4/4
f 18/4/4 17/5/5 8/6/6 7/1/1
f 17/5/5 16/7/7 9/8/8 8/6/6
f 16/7/7 15/9/9 10/10/10 9/8/8
f 15/9/9 5/11/11 2/12/12 10/10/10
f 4/13/13 14/14/14 18/4/4 6/3/3
f 14/14/14 13/15/15 17/5/5 18/4/4
f 13/15/15 12/16/16 16/7/7 17/5/5
f 12/16/16 11/17/17 15/9/9 16/7/7
f 11/17/17 3/18/18 5/11/11 15/9/9
